<svg xmlns="http://www.w3.org/2000/svg" xmlns:xlink="http://www.w3.org/1999/xlink" width="40" zoomAndPan="magnify" viewBox="0 0 30 30.000001" height="40" preserveAspectRatio="xMidYMid meet" version="1.0"><defs><clipPath id="7f914fc9a1"><path d="M 1.589844 1.105469 L 28.445312 1.105469 L 28.445312 27 L 1.589844 27 Z M 1.589844 1.105469 " clip-rule="nonzero"/></clipPath><clipPath id="103debccd9"><path d="M 1.589844 1.105469 L 28.445312 1.105469 L 28.445312 27 L 1.589844 27 Z M 1.589844 1.105469 " clip-rule="nonzero"/></clipPath></defs><g clip-path="url(#7f914fc9a1)"><path fill="#83a260" d="M 28.164062 15.363281 C 27.964844 17.359375 25.574219 17.921875 23.941406 18.078125 C 23.042969 18.160156 22.144531 18.136719 21.253906 18.007812 C 21.699219 18.566406 22.066406 19.171875 22.351562 19.828125 C 23.132812 21.605469 23.289062 24.144531 21.265625 25.152344 C 19.414062 26.078125 17.246094 24.988281 16.117188 23.453125 C 15.671875 22.832031 15.332031 22.15625 15.105469 21.429688 C 14.757812 22.460938 14.289062 23.433594 13.691406 24.34375 C 12.675781 25.882812 10.675781 27.925781 8.765625 26.402344 C 7.097656 25.070312 7.386719 22.375 8.066406 20.613281 C 8.503906 19.457031 9.164062 18.449219 10.050781 17.582031 C 8.253906 17.859375 6.457031 18.027344 4.71875 17.335938 C 2.898438 16.617188 1.601562 14.976562 1.824219 12.964844 C 2.066406 10.8125 3.921875 9.800781 5.953125 10.191406 C 7.351562 10.464844 8.695312 11.144531 10.019531 11.660156 L 11.0625 12.074219 C 10.433594 11.234375 10.015625 10.304688 9.804688 9.277344 C 9.335938 7.003906 9.9375 4.105469 11.875 2.636719 C 13.886719 1.113281 16.171875 2.367188 16.558594 4.683594 C 16.738281 5.878906 16.789062 7.082031 16.707031 8.285156 C 17.152344 7.652344 17.65625 7.070312 18.226562 6.546875 C 19.691406 5.199219 22.058594 3.636719 24.15625 4.273438 C 24.613281 4.402344 24.984375 4.652344 25.277344 5.023438 C 25.570312 5.394531 25.726562 5.816406 25.746094 6.289062 C 25.785156 7.609375 24.792969 8.726562 23.988281 9.667969 C 23.058594 10.75 22.058594 11.761719 20.984375 12.699219 C 21.984375 12.417969 23.003906 12.28125 24.039062 12.292969 C 25.816406 12.320312 28.386719 13.097656 28.164062 15.363281 Z M 28.164062 15.363281 " fill-opacity="1" fill-rule="nonzero"/></g><path fill="#f7f7f7" d="M 13.472656 13.039062 C 12.152344 14.097656 12.085938 16.285156 13.285156 17.296875 C 13.363281 17.378906 13.449219 17.457031 13.539062 17.527344 C 15.261719 18.894531 18.089844 17.546875 18.097656 15.335938 C 18.101562 12.945312 15.347656 11.539062 13.472656 13.039062 Z M 13.472656 13.039062 " fill-opacity="1" fill-rule="nonzero"/><g clip-path="url(#103debccd9)"><path fill="#83a260" d="M 28.164062 15.363281 C 27.964844 17.359375 25.574219 17.921875 23.941406 18.078125 C 23.042969 18.160156 22.144531 18.136719 21.253906 18.007812 C 21.699219 18.566406 22.066406 19.171875 22.351562 19.828125 C 23.132812 21.605469 23.289062 24.144531 21.265625 25.152344 C 19.414062 26.078125 17.246094 24.988281 16.117188 23.453125 C 15.671875 22.832031 15.332031 22.15625 15.105469 21.429688 C 14.757812 22.460938 14.289062 23.433594 13.691406 24.34375 C 12.675781 25.882812 10.675781 27.925781 8.765625 26.402344 C 7.097656 25.070312 7.386719 22.375 8.066406 20.613281 C 8.503906 19.457031 9.164062 18.449219 10.050781 17.582031 C 8.253906 17.859375 6.457031 18.027344 4.71875 17.335938 C 2.898438 16.617188 1.601562 14.976562 1.824219 12.964844 C 2.066406 10.8125 3.921875 9.800781 5.953125 10.191406 C 7.351562 10.464844 8.695312 11.144531 10.019531 11.660156 L 11.0625 12.074219 C 10.433594 11.234375 10.015625 10.304688 9.804688 9.277344 C 9.335938 7.003906 9.9375 4.105469 11.875 2.636719 C 13.886719 1.113281 16.171875 2.367188 16.558594 4.683594 C 16.738281 5.878906 16.789062 7.082031 16.707031 8.285156 C 17.152344 7.652344 17.65625 7.070312 18.226562 6.546875 C 19.691406 5.199219 22.058594 3.636719 24.15625 4.273438 C 24.613281 4.402344 24.984375 4.652344 25.277344 5.023438 C 25.570312 5.394531 25.726562 5.816406 25.746094 6.289062 C 25.785156 7.609375 24.792969 8.726562 23.988281 9.667969 C 23.058594 10.75 22.058594 11.761719 20.984375 12.699219 C 21.984375 12.417969 23.003906 12.28125 24.039062 12.292969 C 25.816406 12.320312 28.386719 13.097656 28.164062 15.363281 Z M 28.164062 15.363281 " fill-opacity="1" fill-rule="nonzero"/></g><path fill="#f7f7f7" d="M 13.472656 13.039062 C 12.152344 14.097656 12.085938 16.285156 13.285156 17.296875 C 13.363281 17.378906 13.449219 17.457031 13.539062 17.527344 C 15.261719 18.894531 18.089844 17.546875 18.097656 15.335938 C 18.101562 12.945312 15.347656 11.539062 13.472656 13.039062 Z M 13.472656 13.039062 " fill-opacity="1" fill-rule="nonzero"/></svg>